<?xml version="1.0"?>
<svg xmlns="http://www.w3.org/2000/svg" viewBox="0 0 80 80">
    <path style="line-height:normal;text-indent:0;text-align:start;text-decoration-line:none;text-decoration-style:solid;text-decoration-color:#000;text-transform:none;block-progression:tb;isolation:auto;mix-blend-mode:normal" d="M 35 7 C 33.35503 7 32 8.3550302 32 10 L 32 12 L 14 12 C 12.35503 12 11 13.35503 11 15 L 11 16 L 11.416016 16 C 11.85942 17.106694 12.743378 18 14 18 L 15 18 L 15 66 C 15 68.749516 17.250484 71 20 71 L 60 71 C 62.749516 71 65 68.749516 65 66 L 65 18 L 66 18 C 67.256622 18 68.14058 17.106694 68.583984 16 L 69 16 L 69 15 C 69 13.35503 67.64497 12 66 12 L 48 12 L 48 10 C 48 8.3550302 46.64497 7 45 7 L 35 7 z M 35 9 L 45 9 C 45.56503 9 46 9.4349698 46 10 L 46 12 L 34 12 L 34 10 C 34 9.4349698 34.43497 9 35 9 z M 14 14 L 66 14 C 66.56503 14 67 14.43497 67 15 C 67 15.56503 66.56503 16 66 16 L 65 16 L 15 16 L 14 16 C 13.43497 16 13 15.56503 13 15 C 13 14.43497 13.43497 14 14 14 z M 17 18 L 63 18 L 63 66 C 63 67.668484 61.668484 69 60 69 L 20 69 C 18.331516 69 17 67.668484 17 66 L 17 18 z M 22 22 A 1 1 0 0 0 21 23 A 1 1 0 0 0 22 24 A 1 1 0 0 0 23 23 A 1 1 0 0 0 22 22 z M 31 22 A 1 1 0 0 0 30 23 A 1 1 0 0 0 31 24 A 1 1 0 0 0 32 23 A 1 1 0 0 0 31 22 z M 49 22 A 1 1 0 0 0 48 23 A 1 1 0 0 0 49 24 A 1 1 0 0 0 50 23 A 1 1 0 0 0 49 22 z M 58 22 A 1 1 0 0 0 57 23 A 1 1 0 0 0 58 24 A 1 1 0 0 0 59 23 A 1 1 0 0 0 58 22 z M 22 26 A 1 1 0 0 0 21 27 A 1 1 0 0 0 22 28 A 1 1 0 0 0 23 27 A 1 1 0 0 0 22 26 z M 31 26 A 1 1 0 0 0 30 27 A 1 1 0 0 0 31 28 A 1 1 0 0 0 32 27 A 1 1 0 0 0 31 26 z M 49 26 A 1 1 0 0 0 48 27 A 1 1 0 0 0 49 28 A 1 1 0 0 0 50 27 A 1 1 0 0 0 49 26 z M 58 26 A 1 1 0 0 0 57 27 A 1 1 0 0 0 58 28 A 1 1 0 0 0 59 27 A 1 1 0 0 0 58 26 z M 22 30 A 1 1 0 0 0 21 31 A 1 1 0 0 0 22 32 A 1 1 0 0 0 23 31 A 1 1 0 0 0 22 30 z M 31 30 A 1 1 0 0 0 30 31 A 1 1 0 0 0 31 32 A 1 1 0 0 0 32 31 A 1 1 0 0 0 31 30 z M 49 30 A 1 1 0 0 0 48 31 A 1 1 0 0 0 49 32 A 1 1 0 0 0 50 31 A 1 1 0 0 0 49 30 z M 58 30 A 1 1 0 0 0 57 31 A 1 1 0 0 0 58 32 A 1 1 0 0 0 59 31 A 1 1 0 0 0 58 30 z M 22 34 A 1 1 0 0 0 21 35 A 1 1 0 0 0 22 36 A 1 1 0 0 0 23 35 A 1 1 0 0 0 22 34 z M 31 34 A 1 1 0 0 0 30 35 A 1 1 0 0 0 31 36 A 1 1 0 0 0 32 35 A 1 1 0 0 0 31 34 z M 49 34 A 1 1 0 0 0 48 35 A 1 1 0 0 0 49 36 A 1 1 0 0 0 50 35 A 1 1 0 0 0 49 34 z M 58 34 A 1 1 0 0 0 57 35 A 1 1 0 0 0 58 36 A 1 1 0 0 0 59 35 A 1 1 0 0 0 58 34 z M 22 38 A 1 1 0 0 0 21 39 A 1 1 0 0 0 22 40 A 1 1 0 0 0 23 39 A 1 1 0 0 0 22 38 z M 31 38 A 1 1 0 0 0 30 39 A 1 1 0 0 0 31 40 A 1 1 0 0 0 32 39 A 1 1 0 0 0 31 38 z M 49 38 A 1 1 0 0 0 48 39 A 1 1 0 0 0 49 40 A 1 1 0 0 0 50 39 A 1 1 0 0 0 49 38 z M 58 38 A 1 1 0 0 0 57 39 A 1 1 0 0 0 58 40 A 1 1 0 0 0 59 39 A 1 1 0 0 0 58 38 z M 22 42 A 1 1 0 0 0 21 43 A 1 1 0 0 0 22 44 A 1 1 0 0 0 23 43 A 1 1 0 0 0 22 42 z M 31 42 A 1 1 0 0 0 30 43 A 1 1 0 0 0 31 44 A 1 1 0 0 0 32 43 A 1 1 0 0 0 31 42 z M 49 42 A 1 1 0 0 0 48 43 A 1 1 0 0 0 49 44 A 1 1 0 0 0 50 43 A 1 1 0 0 0 49 42 z M 58 42 A 1 1 0 0 0 57 43 A 1 1 0 0 0 58 44 A 1 1 0 0 0 59 43 A 1 1 0 0 0 58 42 z M 22 46 A 1 1 0 0 0 21 47 A 1 1 0 0 0 22 48 A 1 1 0 0 0 23 47 A 1 1 0 0 0 22 46 z M 31 46 A 1 1 0 0 0 30 47 A 1 1 0 0 0 31 48 A 1 1 0 0 0 32 47 A 1 1 0 0 0 31 46 z M 49 46 A 1 1 0 0 0 48 47 A 1 1 0 0 0 49 48 A 1 1 0 0 0 50 47 A 1 1 0 0 0 49 46 z M 58 46 A 1 1 0 0 0 57 47 A 1 1 0 0 0 58 48 A 1 1 0 0 0 59 47 A 1 1 0 0 0 58 46 z M 22 50 A 1 1 0 0 0 21 51 A 1 1 0 0 0 22 52 A 1 1 0 0 0 23 51 A 1 1 0 0 0 22 50 z M 31 50 A 1 1 0 0 0 30 51 A 1 1 0 0 0 31 52 A 1 1 0 0 0 32 51 A 1 1 0 0 0 31 50 z M 49 50 A 1 1 0 0 0 48 51 A 1 1 0 0 0 49 52 A 1 1 0 0 0 50 51 A 1 1 0 0 0 49 50 z M 58 50 A 1 1 0 0 0 57 51 A 1 1 0 0 0 58 52 A 1 1 0 0 0 59 51 A 1 1 0 0 0 58 50 z M 22 54 A 1 1 0 0 0 21 55 A 1 1 0 0 0 22 56 A 1 1 0 0 0 23 55 A 1 1 0 0 0 22 54 z M 31 54 A 1 1 0 0 0 30 55 A 1 1 0 0 0 31 56 A 1 1 0 0 0 32 55 A 1 1 0 0 0 31 54 z M 49 54 A 1 1 0 0 0 48 55 A 1 1 0 0 0 49 56 A 1 1 0 0 0 50 55 A 1 1 0 0 0 49 54 z M 58 54 A 1 1 0 0 0 57 55 A 1 1 0 0 0 58 56 A 1 1 0 0 0 59 55 A 1 1 0 0 0 58 54 z M 22 58 A 1 1 0 0 0 21 59 A 1 1 0 0 0 22 60 A 1 1 0 0 0 23 59 A 1 1 0 0 0 22 58 z M 31 58 A 1 1 0 0 0 30 59 A 1 1 0 0 0 31 60 A 1 1 0 0 0 32 59 A 1 1 0 0 0 31 58 z M 49 58 A 1 1 0 0 0 48 59 A 1 1 0 0 0 49 60 A 1 1 0 0 0 50 59 A 1 1 0 0 0 49 58 z M 58 58 A 1 1 0 0 0 57 59 A 1 1 0 0 0 58 60 A 1 1 0 0 0 59 59 A 1 1 0 0 0 58 58 z M 22 62 A 1 1 0 0 0 21 63 A 1 1 0 0 0 22 64 A 1 1 0 0 0 23 63 A 1 1 0 0 0 22 62 z M 31 62 A 1 1 0 0 0 30 63 A 1 1 0 0 0 31 64 A 1 1 0 0 0 32 63 A 1 1 0 0 0 31 62 z M 49 62 A 1 1 0 0 0 48 63 A 1 1 0 0 0 49 64 A 1 1 0 0 0 50 63 A 1 1 0 0 0 49 62 z M 58 62 A 1 1 0 0 0 57 63 A 1 1 0 0 0 58 64 A 1 1 0 0 0 59 63 A 1 1 0 0 0 58 62 z"/>
</svg>
