<?xml version="1.0"?>
<svg xmlns="http://www.w3.org/2000/svg" viewBox="0 0 80 80">
    <path style="line-height:normal;text-indent:0;text-align:start;text-decoration-line:none;text-decoration-style:solid;text-decoration-color:#000;text-transform:none;block-progression:tb;isolation:auto;mix-blend-mode:normal" d="M 63.072266 10.005859 C 61.534706 10.005859 59.995613 10.590325 58.828125 11.757812 L 58 12.585938 L 51.585938 19 L 15.142578 55.443359 L 9.2597656 70.740234 L 24.556641 64.857422 L 24.707031 64.707031 L 61 28.414062 L 67.414062 22 L 68.242188 21.171875 C 70.577163 18.8369 70.577163 15.020522 68.242188 12.685547 L 67.314453 11.757812 C 66.146966 10.590326 64.609825 10.005859 63.072266 10.005859 z M 63.072266 11.992188 C 64.093706 11.992188 65.114878 12.386363 65.900391 13.171875 L 66.828125 14.099609 C 68.39915 15.670634 68.39915 18.186788 66.828125 19.757812 L 66 20.585938 L 59.414062 14 L 60.242188 13.171875 C 61.027698 12.386363 62.050825 11.992186 63.072266 11.992188 z M 58 15.414062 L 64.585938 22 L 61 25.585938 L 54.414062 19 L 58 15.414062 z M 53 20.414062 L 59.585938 27 L 24.65625 61.929688 C 24.480137 61.377151 24.206578 60.792514 23.707031 60.292969 C 22.971329 59.557266 22.045886 59.289646 21.320312 59.144531 C 21.089609 59.098391 21.089839 59.120979 20.900391 59.099609 C 20.879021 58.910161 20.901589 58.910391 20.855469 58.679688 C 20.710352 57.954113 20.442734 57.028671 19.707031 56.292969 C 19.207486 55.793422 18.622849 55.519863 18.070312 55.34375 L 53 20.414062 z M 53 23 A 1 1 0 0 0 52 24 A 1 1 0 0 0 53 25 A 1 1 0 0 0 54 24 A 1 1 0 0 0 53 23 z M 50 26 A 1 1 0 0 0 49 27 A 1 1 0 0 0 50 28 A 1 1 0 0 0 51 27 A 1 1 0 0 0 50 26 z M 47 29 A 1 1 0 0 0 46 30 A 1 1 0 0 0 47 31 A 1 1 0 0 0 48 30 A 1 1 0 0 0 47 29 z M 44 32 A 1 1 0 0 0 43 33 A 1 1 0 0 0 44 34 A 1 1 0 0 0 45 33 A 1 1 0 0 0 44 32 z M 41 35 A 1 1 0 0 0 40 36 A 1 1 0 0 0 41 37 A 1 1 0 0 0 42 36 A 1 1 0 0 0 41 35 z M 38 38 A 1 1 0 0 0 37 39 A 1 1 0 0 0 38 40 A 1 1 0 0 0 39 39 A 1 1 0 0 0 38 38 z M 35 41 A 1 1 0 0 0 34 42 A 1 1 0 0 0 35 43 A 1 1 0 0 0 36 42 A 1 1 0 0 0 35 41 z M 32 44 A 1 1 0 0 0 31 45 A 1 1 0 0 0 32 46 A 1 1 0 0 0 33 45 A 1 1 0 0 0 32 44 z M 29 47 A 1 1 0 0 0 28 48 A 1 1 0 0 0 29 49 A 1 1 0 0 0 30 48 A 1 1 0 0 0 29 47 z M 26 50 A 1 1 0 0 0 25 51 A 1 1 0 0 0 26 52 A 1 1 0 0 0 27 51 A 1 1 0 0 0 26 50 z M 23 53 A 1 1 0 0 0 22 54 A 1 1 0 0 0 23 55 A 1 1 0 0 0 24 54 A 1 1 0 0 0 23 53 z M 16.660156 57.068359 C 16.754602 57.081939 16.822959 57.084123 16.929688 57.105469 C 17.454114 57.210354 18.028671 57.442734 18.292969 57.707031 C 18.557266 57.971329 18.789646 58.545885 18.894531 59.070312 C 18.999417 59.594741 19 60 19 60 L 19 61 L 20 61 C 20 61 20.405259 61.000583 20.929688 61.105469 C 21.454114 61.210354 22.028671 61.442734 22.292969 61.707031 C 22.557266 61.971329 22.789646 62.545885 22.894531 63.070312 C 22.915877 63.177041 22.918061 63.245398 22.931641 63.339844 L 16.003906 66.003906 L 13.996094 63.996094 L 16.660156 57.068359 z"/>
</svg>
