<?xml version="1.0"?>
<svg xmlns="http://www.w3.org/2000/svg" viewBox="0 0 64 64">
    <path d="M 9 6 C 7.346 6 6 7.346 6 9 L 6 55 C 6 56.654 7.346 58 9 58 L 14 58 L 50 58 L 55 58 C 56.654 58 58 56.654 58 55 L 58 17.65625 C 58 16.32125 57.479156 15.065094 56.535156 14.121094 L 49.880859 7.4648438 C 48.936859 6.5208438 47.68075 6 46.34375 6 L 46 6 L 14 6 L 9 6 z M 9 8 L 14 8 L 14 23 C 14 24.654 15.346 26 17 26 L 43 26 C 44.654 26 46 24.654 46 23 L 46 8 L 46.34375 8 C 47.14675 8 47.898844 8.3119062 48.464844 8.8789062 L 55.121094 15.535156 C 55.680094 16.094156 56 16.86725 56 17.65625 L 56 55 C 56 55.552 55.552 56 55 56 L 50 56 L 50 33 C 50 31.346 48.654 30 47 30 L 17 30 C 15.346 30 14 31.346 14 33 L 14 56 L 9 56 C 8.448 56 8 55.552 8 55 L 8 9 C 8 8.448 8.448 8 9 8 z M 16 8 L 44 8 L 44 23 C 44 23.552 43.552 24 43 24 L 17 24 C 16.448 24 16 23.552 16 23 L 16 8 z M 39 10 C 37.346 10 36 11.346 36 13 L 36 19 C 36 20.654 37.346 22 39 22 C 40.654 22 42 20.654 42 19 L 42 13 C 42 11.346 40.654 10 39 10 z M 39 12 C 39.552 12 40 12.448 40 13 L 40 19 C 40 19.552 39.552 20 39 20 C 38.448 20 38 19.552 38 19 L 38 13 C 38 12.448 38.448 12 39 12 z M 17 32 L 47 32 C 47.552 32 48 32.448 48 33 L 48 56 L 16 56 L 16 33 C 16 32.448 16.448 32 17 32 z M 21 36 C 20.447 36 20 36.447 20 37 C 20 37.553 20.447 38 21 38 L 35 38 C 35.553 38 36 37.553 36 37 C 36 36.447 35.553 36 35 36 L 21 36 z M 39 36 C 38.447 36 38 36.447 38 37 C 38 37.553 38.447 38 39 38 L 43 38 C 43.553 38 44 37.553 44 37 C 44 36.447 43.553 36 43 36 L 39 36 z M 21 40 C 20.447 40 20 40.447 20 41 C 20 41.553 20.447 42 21 42 L 39 42 C 39.553 42 40 41.553 40 41 C 40 40.447 39.553 40 39 40 L 21 40 z M 19 48 C 18.447 48 18 48.447 18 49 L 18 51 C 18 51.553 18.447 52 19 52 C 19.553 52 20 51.553 20 51 L 20 49 C 20 48.447 19.553 48 19 48 z M 24 48 C 23.447 48 23 48.447 23 49 L 23 51 C 23 51.553 23.447 52 24 52 C 24.553 52 25 51.553 25 51 L 25 49 C 25 48.447 24.553 48 24 48 z M 29 48 C 28.447 48 28 48.447 28 49 L 28 51 C 28 51.553 28.447 52 29 52 C 29.553 52 30 51.553 30 51 L 30 49 C 30 48.447 29.553 48 29 48 z M 34 48 C 33.447 48 33 48.447 33 49 L 33 51 C 33 51.553 33.447 52 34 52 C 34.553 52 35 51.553 35 51 L 35 49 C 35 48.447 34.553 48 34 48 z M 39 48 C 38.447 48 38 48.447 38 49 L 38 51 C 38 51.553 38.447 52 39 52 C 39.553 52 40 51.553 40 51 L 40 49 C 40 48.447 39.553 48 39 48 z M 44 48 C 43.447 48 43 48.447 43 49 L 43 51 C 43 51.553 43.447 52 44 52 C 44.553 52 45 51.553 45 51 L 45 49 C 45 48.447 44.553 48 44 48 z"/>
</svg>
